HIERARCHY
ROOT Hips
{
	OFFSET -0.179506 -22.333345 2.821913
	CHANNELS 6 Xposition Yposition Zposition Zrotation Yrotation Xrotation 
	JOINT LeftUpLeg
	{
		OFFSET 6.951974 -9.140623 -0.681533
		CHANNELS 3 Zrotation Yrotation Xrotation
		JOINT LeftLeg
		{
			OFFSET 3.427654 -37.519855 -0.449580
			CHANNELS 3 Zrotation Yrotation Xrotation
			JOINT LeftFoot
			{
				OFFSET -1.359570 -39.796059 -4.369333
				CHANNELS 3 Zrotation Yrotation Xrotation
				JOINT LeftToe
				{
					OFFSET 2.635814 -5.579078 11.928840
					CHANNELS 3 Zrotation Yrotation Xrotation
					End Site
					{
						OFFSET 0.000000 0.000000 0.000000
					}
				}
			}
		}
	}
	JOINT RightUpLeg
	{
		OFFSET -6.767048 -9.052170 -0.431982
		CHANNELS 3 Zrotation Yrotation Xrotation
		JOINT RightLeg
		{
			OFFSET -3.829005 -38.256897 -0.885003
			CHANNELS 3 Zrotation Yrotation Xrotation
			JOINT RightFoot
			{
				OFFSET 1.577377 -39.841461 -4.231180
				CHANNELS 3 Zrotation Yrotation Xrotation
				JOINT RightToe
				{
					OFFSET -2.537174 -4.814398 12.334795
					CHANNELS 3 Zrotation Yrotation Xrotation
					End Site
					{
						OFFSET 0.000000 0.000000 0.000000
					}
				}
			}
		}
	}
	JOINT Spine
	{
		OFFSET -0.253288 10.896323 -2.669631
		CHANNELS 3 Zrotation Yrotation Xrotation
		JOINT Spine1
		{
			OFFSET 0.548704 13.518043 0.109247
			CHANNELS 3 Zrotation Yrotation Xrotation
			JOINT Spine2
			{
				OFFSET 0.145701 5.292222 2.542457
				CHANNELS 3 Zrotation Yrotation Xrotation
				JOINT Neck
				{
					OFFSET -0.277840 21.387037 -4.285703
					CHANNELS 3 Zrotation Yrotation Xrotation
					JOINT Head
					{
						OFFSET 0.515184 6.496960 5.134897
						CHANNELS 3 Zrotation Yrotation Xrotation
						End Site
						{
							OFFSET 0.000000 0.000000 0.000000
						}
					}
				}
				JOINT LeftShoulder
				{
					OFFSET 7.884473 12.174932 -3.408961
					CHANNELS 3 Zrotation Yrotation Xrotation
					JOINT LeftArm
					{
						OFFSET 9.097692 3.046888 -0.886815
						CHANNELS 3 Zrotation Yrotation Xrotation
						JOINT LeftForeArm
						{
							OFFSET 25.961220 -1.277207 -2.745643
							CHANNELS 3 Zrotation Yrotation Xrotation
							JOINT LeftHand
							{
								OFFSET 24.923361 0.898606 -0.117091
								CHANNELS 3 Zrotation Yrotation Xrotation
								End Site
								{
									OFFSET 0.000000 0.000000 0.000000
								}
							}
						}
					}
				}
				JOINT RightShoulder
				{
					OFFSET -8.175920 11.883285 -3.861528
					CHANNELS 3 Zrotation Yrotation Xrotation
					JOINT RightArm
					{
						OFFSET -9.601238 3.255117 -0.914307
						CHANNELS 3 Zrotation Yrotation Xrotation
						JOINT RightForeArm
						{
							OFFSET -25.374195 -1.332924 -2.140099
							CHANNELS 3 Zrotation Yrotation Xrotation
							JOINT RightHand
							{
								OFFSET -25.529810 0.777228 -0.555919
								CHANNELS 3 Zrotation Yrotation Xrotation
								End Site
								{
									OFFSET 0.000000 0.000000 0.000000
								}
							}
						}
					}
				}
			}
		}
	}
}
MOTION
Frames: 14
Frame Time: 0.033333
-0.179506 108.609283 2.821913 -179.959965 2.963952 -178.565079 11.022862 1.597361 -6.018849 -6.435945 -10.376168 26.031283 -1.914949 9.939443 -23.723577 3.971310 0.923243 -1.445927 -10.442140 -3.282327 -6.019661 4.712049 5.649297 24.781784 2.512460 -6.631992 -21.130885 3.769127 -1.694546 -1.004540 1.140847 1.009936 4.111179 2.489764 -3.074751 5.051529 -1.061627 -0.813751 -1.943307 -2.137297 4.603970 -1.300071 0.467447 3.015588 -1.385303 -23.059812 3.144509 3.031036 -25.385850 0.872480 6.876889 -4.733332 -42.358981 7.039477 -1.856120 -16.374776 -9.049604 20.462242 1.589067 1.373801 26.607189 -2.935474 6.972748 -0.671976 44.729957 0.875948 6.180211 13.132390 -9.517108 
-0.160199 108.546463 2.784189 -179.972165 2.769035 -178.584168 11.133603 1.694074 -5.840729 -6.416703 -10.272212 25.708770 -1.881375 9.674006 -24.028701 3.993486 0.922964 -1.438011 -10.476171 -3.317919 -6.028441 4.829411 5.629543 25.020648 2.449719 -6.719537 -21.344158 3.761135 -1.680569 -1.009501 1.169644 0.946586 3.919490 2.507127 -3.133399 5.012029 -1.071782 -0.855073 -1.985346 -2.077482 4.543822 -1.351023 0.457703 3.052119 -1.205537 -22.952452 3.167603 3.048008 -25.526041 0.868771 6.905163 -4.825966 -42.245043 7.156069 -1.982257 -16.313942 -9.224834 20.442168 1.551724 1.425491 26.575999 -2.843811 6.961642 -0.416607 44.394306 1.011979 6.218438 13.043866 -9.631468 
-0.122349 108.464661 2.709109 -179.962438 2.717559 -178.564863 11.250569 1.757418 -5.691499 -6.424825 -10.186550 25.509759 -1.864123 9.509517 -24.362638 4.063170 0.913485 -1.448270 -10.498215 -3.371371 -6.106057 4.933069 5.570821 25.289730 2.363507 -6.688292 -21.611109 3.781706 -1.648464 -1.013790 1.216401 0.907744 3.862740 2.496927 -3.127539 4.908360 -1.070702 -0.894661 -2.006258 -2.038677 4.481034 -1.445545 0.430865 3.020962 -0.988252 -22.819203 3.236770 3.078912 -25.638107 0.929371 6.939629 -4.999501 -42.301291 7.345363 -2.000724 -16.274114 -9.605661 20.392401 1.510728 1.421278 26.552102 -2.774975 6.987359 -0.172108 44.100243 1.134005 6.241110 12.887987 -9.930619 
-0.065801 108.373032 2.597931 179.991151 2.799437 -178.533479 11.278662 1.798825 -5.500347 -6.434955 -10.152344 25.330125 -1.801705 9.459793 -24.668766 3.997983 0.910836 -1.426832 -10.554536 -3.449351 -6.037598 4.909650 5.513648 25.250467 2.271496 -6.527694 -22.018398 3.760751 -1.625707 -1.031466 1.225738 0.935700 3.838189 2.478087 -3.050152 4.874735 -1.043463 -0.894209 -2.008487 -2.026470 4.393449 -1.471958 0.386316 2.891982 -0.995293 -22.766362 3.299711 3.081047 -25.642167 1.018843 7.003985 -5.095772 -42.330890 7.370408 -2.023347 -16.329265 -9.745093 20.329760 1.500033 1.408732 26.559624 -2.796298 7.044340 -0.032600 43.831908 1.162409 6.293609 12.810523 -10.094016 
-0.035597 108.288406 2.487599 179.977422 2.949024 -178.479970 11.279308 1.783255 -5.289686 -6.429553 -10.163769 25.102382 -1.684142 9.561954 -24.965702 3.925444 0.915240 -1.407339 -10.600040 -3.497867 -5.951740 4.878739 5.456018 25.094488 2.195876 -6.355619 -22.384939 3.708131 -1.597132 -1.036824 1.214391 0.994345 3.831478 2.464683 -2.961245 4.890507 -1.010084 -0.862143 -2.015404 -2.019180 4.397278 -1.490130 0.324119 2.811073 -1.103938 -22.759618 3.362353 3.076120 -25.550026 1.163615 7.087401 -5.140181 -42.387063 7.228479 -2.051380 -16.404242 -9.885823 20.325087 1.519461 1.405924 26.562608 -2.821208 7.078124 0.003948 43.538987 0.988163 6.255354 12.761949 -10.269629 
0.007730 108.219742 2.393685 179.970019 3.127129 -178.405312 11.261785 1.787138 -5.186368 -6.417196 -10.208024 25.013953 -1.556986 9.720265 -25.137234 3.884243 0.918068 -1.421823 -10.605825 -3.511328 -6.009931 4.844841 5.405836 25.119905 2.102782 -6.215495 -22.668707 3.679295 -1.582676 -1.041801 1.197377 1.023134 3.906582 2.463075 -2.894853 4.882019 -0.972059 -0.818458 -2.001563 -1.981543 4.445224 -1.534047 0.271709 2.818445 -1.215197 -22.778314 3.397148 3.080565 -25.450476 1.300675 7.178889 -5.166278 -42.367204 7.061417 -1.761892 -16.431144 -10.072129 20.329380 1.554332 1.424847 26.605228 -2.782729 7.082474 -0.025257 43.309933 0.752965 5.918622 12.734319 -10.396443 
-0.008944 108.166946 2.460036 -179.974709 3.315418 -178.353711 11.255141 1.819216 -5.350110 -6.397686 -10.126326 25.249203 -1.361133 9.850660 -25.243915 3.924422 0.940235 -1.470293 -10.596295 -3.484843 -6.353031 4.872067 5.262634 25.471357 1.979652 -6.073510 -22.760965 3.749660 -1.607533 -1.038821 1.205995 0.996815 4.246807 2.464096 -2.831173 4.723594 -0.971356 -0.797559 -1.937404 -1.886254 4.599773 -1.660104 0.232313 2.859031 -1.227503 -22.749408 3.372057 3.052354 -25.443061 1.305786 7.203098 -5.280594 -42.264315 7.121670 -1.144575 -16.334142 -10.353801 20.318287 1.611087 1.408650 26.815807 -2.629204 7.061743 -0.239282 43.200234 0.406233 5.177611 12.608190 -10.664674 
0.051026 108.135651 2.629810 -179.973086 3.482604 -178.210832 11.251605 1.892332 -5.841328 -6.317295 -9.813251 25.728630 -1.208292 9.787197 -25.110132 3.978178 0.957876 -1.525111 -10.568234 -3.390185 -7.031238 4.911637 4.995494 26.107186 1.778687 -5.966027 -22.767002 3.912413 -1.656161 -1.043516 1.265419 0.903621 4.877514 2.432663 -2.773433 4.411752 -0.982451 -0.810884 -1.813060 -1.838359 4.811960 -1.978853 0.134732 2.907860 -1.274563 -22.668375 3.270533 2.997316 -25.696204 1.177678 7.174902 -5.307795 -42.067988 7.212168 -0.304637 -16.178527 -10.657758 20.236069 1.645934 1.351492 27.309624 -2.452767 7.128710 -0.738521 43.584547 -0.016542 4.049018 12.432405 -10.995041 
0.198945 108.146179 2.990657 -179.999244 3.716845 -178.107091 11.267126 1.981357 -6.484060 -6.191991 -9.448241 26.320602 -1.218518 9.648243 -24.782994 4.132263 0.970035 -1.615006 -10.491803 -3.304887 -8.074747 4.952130 4.653378 27.174526 1.559789 -5.787851 -22.627776 4.136202 -1.706143 -1.043551 1.388924 0.762787 5.756112 2.355098 -2.712283 4.099473 -0.985538 -0.866227 -1.704142 -1.842408 5.170178 -2.427166 0.003863 2.962366 -1.377554 -22.590799 3.135685 2.959969 -26.214991 1.045920 7.166961 -5.328582 -41.944446 7.370558 0.718041 -16.012556 -11.021495 20.049390 1.703900 1.201315 28.227954 -2.313622 7.360793 -1.559528 44.517593 -0.585725 2.716031 12.253890 -11.604224 
0.432662 108.253357 3.340340 179.930899 4.077404 -177.909203 11.292964 2.121284 -7.115847 -6.049680 -9.030659 26.729723 -1.483806 9.495744 -24.062172 4.311874 0.948658 -1.716050 -10.393066 -3.268865 -9.290628 4.925160 4.220827 28.264867 1.420335 -5.482185 -22.130164 4.344413 -1.719311 -1.034970 1.479415 0.615207 6.776540 2.254300 -2.646646 3.845986 -0.969924 -0.887870 -1.591658 -1.927870 5.636325 -2.866302 -0.058536 3.025113 -1.555149 -22.478043 3.018888 2.946106 -27.033027 0.945304 7.240955 -5.346280 -42.111949 7.553512 1.694835 -15.964335 -11.296931 19.802306 1.677705 1.052978 29.596300 -2.234464 7.675579 -2.611511 45.874964 -1.288890 1.368181 12.162952 -12.160363 
0.716627 108.541138 3.648026 179.926660 4.554750 -177.447546 11.368460 2.301802 -7.913646 -5.856150 -8.639690 26.959759 -2.008283 9.367996 -22.617218 4.564385 0.892277 -1.862309 -10.107563 -3.230906 -10.809690 4.781592 3.796785 29.291707 1.338981 -5.123932 -20.820729 4.661354 -1.708525 -1.045447 1.634482 0.381515 7.990969 2.107749 -2.574494 3.556679 -0.878955 -0.952458 -1.437332 -2.257744 6.131460 -3.407810 -0.119759 3.237016 -1.869042 -22.342808 2.914510 2.960368 -28.682950 0.807293 7.396441 -5.042455 -42.234361 7.685671 2.559757 -15.941660 -11.709189 19.364432 1.652321 0.971146 31.399018 -2.150048 8.123838 -3.546272 47.481526 -1.557011 0.261416 12.155864 -12.717428 
0.945472 109.062073 3.817151 179.895498 5.080804 -176.237954 11.362497 2.453150 -9.107265 -5.545876 -7.847477 26.538515 -2.797166 9.086791 -20.404027 4.858562 0.829663 -2.029821 -9.806301 -3.127166 -12.970296 4.410546 3.086467 29.960887 1.516278 -4.695895 -18.390429 5.171360 -1.709824 -1.033855 1.743165 0.037392 9.411109 1.862717 -2.566847 3.016089 -0.706431 -1.076349 -1.269869 -2.711391 6.652391 -3.927463 -0.001101 3.611204 -2.328113 -22.134046 2.716733 3.067304 -31.193041 0.480170 7.592056 -4.596119 -42.016029 7.792466 3.410434 -15.893448 -12.386222 18.574159 1.623709 0.987178 33.957456 -2.165343 8.726216 -4.251937 49.192818 -1.426580 -0.883508 12.105803 -13.405541 
1.339359 109.699066 4.386998 179.831002 5.718400 -174.388211 11.243732 2.422030 -11.054195 -4.775346 -6.416933 25.744891 -3.668883 8.834926 -17.784162 5.212864 0.768606 -2.111957 -9.348949 -2.867083 -15.789758 3.784567 1.945720 29.876049 1.584486 -4.114218 -15.703842 5.885579 -1.775580 -0.976172 1.787976 -0.358723 10.692359 1.632345 -2.614824 2.697457 -0.403301 -1.233035 -1.246216 -3.404342 7.115707 -4.335899 0.293200 4.123235 -3.060669 -21.799209 2.311321 3.467608 -34.776888 -0.151646 8.268274 -4.092197 -41.644535 8.173621 4.039349 -16.090223 -13.035717 17.318922 1.690943 1.203684 37.402088 -2.415609 9.723402 -4.876996 51.065737 -0.815380 -1.656454 12.372085 -14.065328 
1.715402 110.170319 5.055852 179.851953 6.310477 -171.700867 11.187633 2.043308 -14.004348 -3.950398 -4.762661 25.133006 -4.240859 8.603154 -15.769673 5.474516 0.804823 -2.208357 -8.787423 -2.251466 -19.306436 3.059922 0.807749 29.378287 1.421956 -3.695404 -13.509350 6.720793 -1.901087 -0.897306 1.767193 -0.705812 12.353990 1.453533 -2.840881 2.179007 0.098839 -1.508288 -1.191585 -3.995741 7.591662 -4.922149 0.746021 4.959567 -4.245429 -21.280857 1.586139 3.823551 -39.059060 -1.308975 8.815020 -3.163168 -40.476388 7.771091 4.710873 -16.148682 -14.057163 15.779215 1.780698 1.383837 41.124601 -2.617254 10.962871 -5.087441 52.392370 0.574961 -2.264774 12.582457 -14.387935 
